# xmcd
#
# Track frame offsets: 
#        177
#        12905
#        25690
#        42080
#        57167
#        74195
#        94122
#        114882
#        125617
#        148050
#
# Disc length: 2246 seconds
#
# Revision: 2
# Processed by: cddbd v1.4PL0 Copyright (c) Steve Scherf et al.
# Submitted via: ExactAudioCopy v0.90b4
#
DISCID=8708c40a
DTITLE=Various Artist - Even Santa Gets The Blues
DYEAR=1995
DGENRE=
TTITLE0=B.B. King - Christmas Celebration
TTITLE1=Hadda Brooks - I'll Be Home For Christmas
TTITLE2=Charles Brown - Merry Christmas Baby
TTITLE3=Jesse Belvin - I Want You With Me At Christmas
TTITLE4=Hadda Brooks - White Christmas
TTITLE5=Hadda Brooks - LA Christmas Blue
TTITLE6=Johnny Winter - Please Come Home For Christmas
TTITLE7=Lowell Fulsom - I Wanna Spend Christmas With You
TTITLE8=Isaac Hayes - Only If You Were Here
TTITLE9=Isaac Hayes - So Glad You Were Born
EXTD=
EXTT0=
EXTT1=
EXTT2=
EXTT3=
EXTT4=
EXTT5=
EXTT6=
EXTT7=
EXTT8=
EXTT9=
PLAYORDER=
